<svg xmlns="http://www.w3.org/2000/svg" width="192" height="18" fill="none">
    <g clip-path="url(#a)">
    <path fill="#F5F5F5" d="M71.4 2c0 .5-.2 1-.6 1.3-.4.4-.8.6-1.4.6-.3 0-.7-.1-.9-.3-.3-.1-.5-.4-.7-.7a2 2 0 0 1-.2-.9c0-.5.1-1 .5-1.3.4-.4.9-.5 1.3-.5.6 0 1 .1 1.3.5.4.3.7.8.7 1.3ZM84.9 14c0 1.2-.5 2.2-1.3 2.9-.9.8-2.2 1-3.9 1-1 0-1.8 0-2.5-.2-.8-.1-1.6-.3-2.4-.7v-3.3c.7.5 1.3.8 2 1 .5.3 1.1.3 1.8.3 1.2 0 1.7-.3 1.7-.9 0-.2 0-.4-.2-.5l-.9-.6-1.6-.7c-.8-.4-1.5-.9-2.1-1.5a3 3 0 0 1-.9-2.3c0-.6.2-1.2.6-1.9.4-.6 1-1 1.8-1.4.8-.4 1.8-.6 2.9-.6l1 .1 1.5.3a7 7 0 0 1 1.8.7V9l-.7-.4-.7-.4-1.1-.4-1.2-.1c-.6 0-.9 0-1.1.3l-.3.6c0 .2 0 .4.3.6l1.3.7 2.4 1.2c.6.3 1 .8 1.3 1.3.3.5.5 1 .5 1.7ZM97.4 17a7 7 0 0 1-1.9.6l-2.4.3c-3.2 0-4.8-1.6-4.8-4.8v-5h-2.1v-.8l6-6.2h.6v3.8h4.3v3.2h-4.3v5.2c.2.4.3.6.6.8.3.2.6.3 1.2.3.7 0 1.7-.3 2.8-.9V17ZM115.4 2c0 .5-.1 1-.5 1.3-.4.4-.9.6-1.4.6-.4 0-.7-.1-1-.3-.2-.1-.5-.4-.6-.7a2 2 0 0 1-.3-.9c0-.5.2-1 .6-1.3.4-.4.8-.5 1.3-.5s1 .1 1.3.5c.4.3.6.8.6 1.3ZM161.8 17a7 7 0 0 1-2 .6l-2.3.3c-3.3 0-4.9-1.6-4.9-4.8v-5h-2v-.8l6-6.2h.6v3.8h4.3v3.2h-4.3v5.2c.1.4.3.6.5.8.2.2.7.3 1.2.3.7 0 1.7-.3 2.9-.9V17ZM177.9 11.3a7 7 0 0 1-.8 3.4c-.6 1-1.4 1.8-2.5 2.4-1.1.6-2.5.9-4 .9a9 9 0 0 1-4-.9c-1.1-.5-2-1.4-2.5-2.4s-.9-2.1-.9-3.4c0-1 .2-1.8.5-2.6s.8-1.4 1.4-2c.6-.7 1.4-1.1 2.3-1.5 1-.3 2-.4 3.2-.4 1.2 0 2.2.1 3.2.4 1 .4 1.7.8 2.3 1.4.6.7 1.1 1.3 1.4 2.1.3.8.4 1.6.4 2.6Zm-4.7 0c0-1-.2-1.7-.7-2.4-.5-.6-1-.8-2-.8-.8 0-1.4.3-1.9.8-.4.6-.7 1.4-.7 2.4s.3 1.8.7 2.4c.5.6 1.1.9 2 .9.8 0 1.4-.3 1.9-.9.5-.6.7-1.4.7-2.4ZM70.4 17.7c.2 0 .6 0 1-.3 0 0 .4-.4.4-1V5h-3.3s-.5 0-.8.4c0 0-.4.4-.4 1v11.4h3.1ZM147.5 17.7s.5 0 .9-.3c0 0 .3-.4.3-1V5h-3.2s-.5 0-.8.4c0 0-.4.4-.4 1v6.2L143 14c-.4.3-1 .5-1.5.5-.8 0-1.3-.2-1.6-.8-.2-.5-.4-1.1-.4-1.8v-7h-4.5v7.6c0 1.4.3 2.7.8 3.8.6 1 1.9 1.7 3.8 1.7a6.1 6.1 0 0 0 4.6-2v1.7h3.2ZM64.1 16.4V.4H61c-.1 0-.6 0-.9.3 0 0-.4.4-.4 1v4a4 4 0 0 0-1.3-.7c-.6-.1-1.3-.3-2-.3-1.4 0-2.5.3-3.4 1-1 .5-1.7 1.4-2.1 2.4-.5 1-.6 2-.6 3.2 0 1.5.3 2.7.8 3.7a5 5 0 0 0 2.2 2.2 6 6 0 0 0 2.8.7c1 0 1.7-.2 2.3-.4.5-.2 1-.6 1.5-1v1.2H63c.1 0 .6 0 .9-.3-.2 0 .2-.4.2-1Zm-4.5-2.7-1 .6a3 3 0 0 1-1.4.2c-.6 0-1.2-.2-1.7-.8-.6-.5-.8-1.3-.8-2.4 0-1 .2-1.9.7-2.5.5-.6 1-1 1.8-1l1 .2 1.3.6v5ZM190.2 5a3.6 3.6 0 0 0-3.9.8c-.7.7-1.2 1.5-1.5 2.2V5h-3.3c-.1 0-.5 0-.8.3 0 0-.4.4-.4 1v11.4h3.2c.1 0 .6 0 .9-.3 0 0 .4-.4.4-1v-4.2c.4-1.2.8-2 1.3-2.4.4-.5 1-.6 1.6-.6.7 0 1.4.3 2 1l1.8-4.6-1.3-.7ZM112.5 5c-.2 0-.6 0-1 .3 0 0-.3.4-.3 1v11.4h3.2s.6 0 .9-.3c0 0 .3-.4.3-1V5h-3.1ZM109.3 5a3.6 3.6 0 0 0-3.8.8c-.7.7-1.3 1.5-1.6 2.2V5h-3.2c-.1 0-.6 0-.9.3 0 0-.4.4-.4 1v11.4h3.3s.5 0 .8-.3c0 0 .4-.4.4-1v-4.2c.5-1.2.9-2 1.3-2.4.5-.5 1-.6 1.7-.6.6 0 1.3.3 2 1l1.7-4.6-1.3-.7ZM132.6 9a7 7 0 0 0-1-2.2 5.5 5.5 0 0 0-4.7-2c-.8 0-1.5 0-2 .2l-1.4.7V.3h-3.2c-.1 0-.6 0-.9.4 0 0-.4.4-.4 1v16h3.3s.5 0 .8-.3c0 0 .4-.4.4-1v.2l.9.6c.3.2.6.4 1.1.5.5.2 1.1.3 1.8.3 1 0 1.8-.3 2.8-.7.9-.5 1.6-1.2 2.2-2.2a7 7 0 0 0 .9-3.7c-.3-.8-.4-1.7-.6-2.5Zm-5.2 4.9c-.6.4-1.1.7-1.7.7-1 0-1.6-.3-2.3-1V8.9c.8-.5 1.6-.9 2.3-.9.7 0 1.2.4 1.7.9s.8 1.4.8 2.5c0 1.3-.3 2.1-.8 2.6Z"/><path fill="#fff" d="m0 7.9 4.4-4.3V6H8v2.1H4.4v5.6c0 1.3.5 2 1.6 2 .9 0 1.7-.3 2.6-.8V17a6 6 0 0 1-2.8.8c-1 0-2-.4-2.6-1-.3 0-.4-.3-.6-.5l-.4-1-.1-2.1V8H0V8ZM15.8 6a6 6 0 0 1 6.2 6c0 1.7-.6 3-1.8 4.1a6.4 6.4 0 0 1-4.5 1.6c-1.7 0-3.1-.5-4.3-1.7A5.7 5.7 0 0 1 9.7 12c0-1.7.6-3.1 1.7-4.3A6 6 0 0 1 15.8 6Zm-.1 2c-1.1 0-2 .4-2.7 1.1-.7.7-1.1 1.6-1.1 2.8 0 1 .4 2 1 2.7.8.7 1.7 1 2.8 1 1.2 0 2.1-.3 2.8-1 .7-.7 1.1-1.6 1.1-2.7s-.4-2-1.2-2.7A3.6 3.6 0 0 0 15.7 8ZM24.5 0H27v17.6h-2.4V0ZM32 6h2.7l-5 5.6 6 6h-3l-5.8-6L32 6ZM41.6 6a6 6 0 0 1 6.2 6c0 1.7-.7 3-1.8 4.1a6.4 6.4 0 0 1-4.5 1.6c-1.8 0-3.2-.5-4.3-1.7a5.7 5.7 0 0 1-1.8-4.1 6 6 0 0 1 6.2-6Zm0 2c-1.2 0-2 .4-2.8 1.1-.7.7-1 1.6-1 2.8 0 1 .3 2 1 2.7.7.7 1.6 1 2.8 1 1.1 0 2-.3 2.8-1 .7-.7 1-1.6 1-2.7s-.3-2-1.1-2.7A3.7 3.7 0 0 0 41.5 8Z"/></g><defs><clipPath id="a"><path fill="#fff" d="M0 0H192v18H0z"/></clipPath></defs></svg>