<svg width="1518" height="421" viewBox="0 0 1518 421" fill="none" xmlns="http://www.w3.org/2000/svg">
<path opacity="0.4" d="M1.51547 726L1.51542 -306M190.951 726L190.951 -306M380.387 726L380.387 -306M569.822 726L569.822 -306M759.258 726L759.258 -306M948.693 726L948.693 -306M1138.13 726L1138.13 -306M1327.56 726L1327.56 -306M1517 726L1517 -306M1 -277.145H1516.48M1 -114.785L1516.48 -114.785M1 47.5746L1516.48 47.5745M1 209.934L1516.48 209.934M1 372.294L1516.48 372.294M1 534.654L1516.48 534.654M1 697.014L1516.48 697.014" stroke="url(#paint0_radial_303_6939)" stroke-opacity="0.3" stroke-width="1.65978"/>
<defs>
<radialGradient id="paint0_radial_303_6939" cx="0" cy="0" r="1" gradientUnits="userSpaceOnUse" gradientTransform="translate(759 210) rotate(-90) scale(516 758)">
<stop stop-color="white"/>
<stop offset="1" stop-color="white" stop-opacity="0.26"/>
</radialGradient>
</defs>
</svg>
